<?xml version='1.0' encoding='utf-8'?>
<svg xmlns="http://www.w3.org/2000/svg" width="800" height="800" version="1.1" viewBox="0 0 800 800"> <title>home</title> <g id="Layer_1"> <title>Layer 1</title> <g> <title>icono</title> <g id="svg_1"> <title>Layer 1</title> <ellipse fill="#FFFFFF" cx="398.97712" cy="395.74128" id="svg_13" rx="394.27664" ry="393.44179" stroke="null"/> <path fill="#A0D58A" d="m404.57939,311.98184l0.74251,-0.74001l0.74251,0.74001l-0.37125,0l0,0.74357l-0.74251,0l0,-0.74357l-0.37125,0l-0.00001,0z" id="svg_12" stroke="null"/> <path fill="#ffffff" stroke="null" d="m470.24938,367.70184l10,-0.74001l10,0.74001l-5,0l0,0.74357l-10,0l0,-0.74357l-5,0z" id="svg_11"/> <path fill="#ffffff" stroke="null" d="m426.46939,361.73184l0.74251,-0.74001l0.74251,0.74001l-0.37125,0l0,0.74357l-0.74251,0l0,-0.74357l-0.37125,0l-0.00001,0z" id="svg_10"/> <path fill="#ffffff" stroke="null" d="m884.16939,345.81184l0.74251,-0.74001l0.74251,0.74001l-0.37125,0l0,0.74357l-0.74251,0l0,-0.74357l-0.37125,0l-0.00001,0z" id="svg_9"/> <path transform="rotate(90 399.572 356.009)" id="svg_8" d="m400.02635,355.58538l-0.42374,0.42371l0.42374,0.42371l-0.24216,0.24229l-0.6659,-0.66601l0.6659,-0.66606" stroke="null" fill="#ffffff"/> <path transform="rotate(90 390.313 262.376)" stroke="null" id="svg_7" d="m525.70417,65.12651l-197.79761,198.99433l198.44551,195.50563l-88.91829,-21.41971l-183.1591,-174.0859l184.67974,-171.84074" fill="#7B572D"/> <path transform="rotate(-90 390.222 412.32)" stroke="null" id="svg_6" d="m198.25408,238.87231l209.41937,0l174.51611,173.44793l-174.51611,173.44792l-209.41937,0l0,-346.89585z" fill="#7B572D"/> <path transform="rotate(-90 400.213 412.32)" stroke="null" id="svg_5" d="m208.24552,238.87231l209.41936,0l174.51611,173.44793l-174.51611,173.44792l-209.41936,0l0,-346.89584l0,-0.00001z" fill="#ffffff"/> <path transform="rotate(90 400.305 262.376)" stroke="null" id="svg_4" d="m535.69561,65.12651l-197.79761,198.99433l198.44551,195.50563l-88.91829,-21.41971l-183.1591,-174.0859l184.67974,-171.84074" fill="#ffffff"/> <rect stroke-width="0" stroke="null" id="svg_3" height="135.90025" width="114.89749" y="468.69262" x="344.54626" fill="#FABA6F"/> <rect stroke="null" id="svg_2" height="135.90025" width="16.51566" y="468.69262" x="442.92808" fill="#7B572D"/> </g> </g> </g> </svg>